<?xml version="1.0" encoding="utf-8"?>
<!-- Generator: Adobe Illustrator 18.1.1, SVG Export Plug-In . SVG Version: 6.00 Build 0)  -->
<svg version="1.1" id="Ebene_1" xmlns="http://www.w3.org/2000/svg" xmlns:xlink="http://www.w3.org/1999/xlink" x="0px" y="0px"
	 viewBox="0 0 700.8 275" enable-background="new 0 0 700.8 275" xml:space="preserve">
<polygon fill="#FFFFFF" points="436.3,104.2 404.6,232.9 456,232.9 488.9,98.8 "/>
<path fill="#FFFFFF" d="M605.5,98.6c-15.3-1.5-39.2,3.2-51,12.2c-0.3-4.9-1.2-8.8-2.2-12.7l-45.4,5.6c1.8,12.7,0,26.8-4.4,45.7
	l-20.4,83.5h51.3l21-85.2c5.1-7.4,13.3-12.3,20.2-12.3c8.6,0,10.6,6.3,8,16.5l-19.7,81h51.3l22-88C641.5,121,633.8,101.4,605.5,98.6
	z"/>
<path fill-rule="evenodd" clip-rule="evenodd" fill="#FFFFFF" d="M374.2,100.2l-16.2,37.5c-6,14.1-11.3,27.4-15.9,40.4l-0.6-77.9
	h-46.3l-38.4,78.6l4.2-80.4l-51,6.4l10.3,128.1h45.1c0,0,34.2-69.1,37.3-77.1l0.5,77.1h46.3l76.4-132.6H374.2z"/>
<path fill-rule="evenodd" clip-rule="evenodd" fill="#FFFFFF" d="M154.5,96.9c-13.3,0-23.3,3.5-29.2,6.8c8.4-26,10.3-50.1,10.3-50.1
	l0,0c0.4-3.9,0.4-8.5,0.3-11.6l-53.8,6.5c0.6,8.6-0.7,22.3-7.6,51.4l-26,107.5c-1.2,5.1-4.1,14.9-6.5,18.5
	c16.2,5.4,34.8,10.3,65.5,10.3c16.8,0,30.1-3.1,43.7-11.1c23.3-13.6,37.7-38.2,43.7-62C206.1,118.7,187.9,96.9,154.5,96.9z
	 M140.9,165.5c-5.9,24.7-13.6,35.7-26.6,35.7c-5.3,0-9.7-1.3-12.1-3.1l14.2-58.9c2.7-2.3,7.4-6.4,15.1-6.4
	C143,132.9,147.1,139.3,140.9,165.5z"/>
<g>
	<path fill="#FFCC00" d="M497.2,62.7c0-13.8-12-25-27.4-25c-15.7,0-28.5,11.2-28.5,25c0,13.8,12.6,25,27.7,25
		C484.6,87.7,497.2,76.5,497.2,62.7L497.2,62.7z"/>
</g>
</svg>
